<?xml version="1.0" encoding="UTF-8" standalone="no"?>
<svg
   xmlns:dc="http://purl.org/dc/elements/1.1/"
   xmlns:cc="http://creativecommons.org/ns#"
   xmlns:rdf="http://www.w3.org/1999/02/22-rdf-syntax-ns#"
   xmlns:svg="http://www.w3.org/2000/svg"
   xmlns="http://www.w3.org/2000/svg"
   id="svg25"
   version="1.1"
   height="155.5"
   width="263.5">
  <metadata
     id="metadata31">
    <rdf:RDF>
      <cc:Work
         rdf:about="">
        <dc:format>image/svg+xml</dc:format>
        <dc:type
           rdf:resource="http://purl.org/dc/dcmitype/StillImage" />
      </cc:Work>
    </rdf:RDF>
  </metadata>
  <defs
     id="defs29" />
  <style
     id="style2"><![CDATA[  #logo-group > rect { fill: none; }     #tagline path, #tagline polygon{ fill: #000000 !important; } ]]></style>
  <g
     id="g7">
    <title
       id="title4">background</title>
    <rect
       x="-1"
       y="-1"
       width="582"
       height="402"
       id="canvas_background"
       fill="none" />
  </g>
  <g
     id="g23">
    <title
       id="title9">Layer 1</title>
    <rect
       id="rect3"
       width="263.5"
       fill="#fff"
       height="155.5" />
    <path
       id="path5"
       opacity="0.2"
       fill="#211716"
       d="m21.8,85.1c1.4,0.3 2.8,-0.6 3.1,-2.1l14.8,0l0,-25.2l5.3,0c0.2,1 1,1.8 2.1,2.1c1.4,0.3 2.8,-0.6 3.1,-2.1c0.3,-1.4 -0.6,-2.8 -2.1,-3.1c-1.4,-0.3 -2.8,0.6 -3.1,2.1l-6.4,0l0,25.2l-13.7,0c-0.2,-1 -1,-1.8 -2.1,-2.1c-1.4,-0.3 -2.8,0.6 -3.1,2.1c-0.3,1.4 0.7,2.8 2.1,3.1zm25.8,-29.4c0.9,0 1.6,0.7 1.6,1.6s-0.7,1.6 -1.6,1.6s-1.6,-0.7 -1.6,-1.6s0.7,-1.6 1.6,-1.6zm-25.3,25.2c0.9,0 1.6,0.7 1.6,1.6s-0.7,1.6 -1.6,1.6s-1.6,-0.7 -1.6,-1.6s0.7,-1.6 1.6,-1.6zm75.2,-71.6l0,30.6l-25.4,0l-16.7,16.6l0,40.2c-1,0.2 -1.8,1 -2.1,2.1c-0.3,1.4 0.6,2.8 2.1,3.1c1.4,0.3 2.8,-0.6 3.1,-2.1c0.3,-1.4 -0.6,-2.8 -2.1,-3.1l0,-39.8l16,-16l26.1,0l0,-31.6c1,-0.2 1.8,-1 2.1,-2.1c0.3,-1.4 -0.6,-2.8 -2.1,-3.1c-1.4,-0.3 -2.8,0.6 -3.1,2.1c-0.2,1.4 0.7,2.8 2.1,3.1zm-40,90c0,0.9 -0.7,1.6 -1.6,1.6s-1.6,-0.7 -1.6,-1.6c0,-0.9 0.7,-1.6 1.6,-1.6s1.6,0.7 1.6,1.6zm40.5,-94.1c0.9,0 1.6,0.7 1.6,1.6s-0.7,1.6 -1.6,1.6s-1.6,-0.7 -1.6,-1.6c0.1,-0.9 0.8,-1.6 1.6,-1.6zm160.5,142c-1.4,-0.3 -2.8,0.6 -3.1,2.1l-65.3,0l0,6.2l1.1,0l0,-5.2l64.2,0c0.2,1 1,1.8 2.1,2.1c1.4,0.3 2.8,-0.6 3.1,-2.1c0.2,-1.4 -0.7,-2.8 -2.1,-3.1zm-0.6,4.2c-0.9,0 -1.6,-0.7 -1.6,-1.6s0.7,-1.6 1.6,-1.6s1.6,0.7 1.6,1.6s-0.7,1.6 -1.6,1.6zm-227.7,-57.9c1.4,0.3 2.8,-0.6 3.1,-2.1l5.3,0l0,25.2l6.4,0c0.2,1 1,1.8 2.1,2.1c1.4,0.3 2.8,-0.6 3.1,-2.1c0.3,-1.4 -0.6,-2.8 -2.1,-3.1c-1.4,-0.3 -2.8,0.6 -3.1,2.1l-5.3,0l0,-25.2l-6.4,0c-0.2,-1 -1,-1.8 -2.1,-2.1c-1.4,-0.3 -2.8,0.6 -3.1,2.1c-0.2,1.4 0.7,2.8 2.1,3.1zm17.4,21.1c0.9,0 1.6,0.7 1.6,1.6s-0.7,1.6 -1.6,1.6s-1.6,-0.7 -1.6,-1.6s0.7,-1.6 1.6,-1.6zm-16.9,-25.3c0.9,0 1.6,0.7 1.6,1.6s-0.7,1.6 -1.6,1.6c-0.9,0 -1.6,-0.7 -1.6,-1.6s0.7,-1.6 1.6,-1.6zm75.2,66.2l1.1,0l0,-5.2l7.4,0l0,5.2l1.1,0l0,-6.2l-9.5,0l0,6.2l-0.1,0zm151.5,-13.6l6.3,0l0,-1.1l-5.3,0l0,-49.4l5.3,0l0,-1.1l-6.3,0l0,51.6zm-117.8,-90.5c0.2,0 0.3,0.1 0.5,0.1c1.5,0 2.6,-1.2 2.6,-2.6c0,-0.2 0,-0.3 -0.1,-0.5c-0.3,-1.4 -1.7,-2.4 -3.1,-2.1c-1,0.2 -1.8,1 -2.1,2.1l-60.6,0l-12.9,12.8l0,52.3c-1,0.2 -1.8,1 -2.1,2.1c-0.3,1.4 0.6,2.8 2.1,3.1c1.4,0.3 2.8,-0.6 3.1,-2.1c0.3,-1.4 -0.6,-2.8 -2.1,-3.1l0,-51.8l12.3,-12.3l60.3,0c0.3,1 1.1,1.8 2.1,2zm0,-4.1c0.3,-0.1 0.7,-0.1 1,0c0.8,0.3 1.3,1.2 1,2s-1.2,1.3 -2,1c-0.5,-0.2 -0.8,-0.5 -1,-1c-0.3,-0.8 0.2,-1.7 1,-2zm-73.6,68.8c0,0.9 -0.7,1.6 -1.6,1.6s-1.6,-0.7 -1.6,-1.6s0.7,-1.6 1.6,-1.6c0.9,0.1 1.6,0.8 1.6,1.6zm23.1,-106.8l0,22.1l-20.5,0l-16.8,16.9l-10,0c-0.2,-1 -1,-1.8 -2.1,-2.1c-1.4,-0.3 -2.8,0.6 -3.1,2.1c-0.3,1.4 0.6,2.8 2.1,3.1c1.4,0.3 2.8,-0.6 3.1,-2.1l10.5,0l16.7,-16.8l21.1,0l0,-23.2c1,-0.2 1.8,-1 2.1,-2.1c0.3,-1.4 -0.6,-2.8 -2.1,-3.1c-1.4,-0.3 -2.8,0.6 -3.1,2.1c-0.2,1.4 0.7,2.8 2.1,3.1zm-50,41.1c-0.9,0 -1.6,-0.7 -1.6,-1.6s0.7,-1.6 1.6,-1.6s1.6,0.7 1.6,1.6s-0.7,1.6 -1.6,1.6zm50.5,-45.2c0.9,0 1.6,0.7 1.6,1.6s-0.7,1.6 -1.6,1.6s-1.6,-0.7 -1.6,-1.6c0.1,-0.9 0.8,-1.6 1.6,-1.6zm50,150.3l1.1,0l0,-22l7.4,0l0,22l1.1,0l0,-23l-9.5,0l0,23l-0.1,0zm-101,-137.8l0,13.7l-16.8,0l0,33.7l-5.3,0c-0.2,-1 -1,-1.8 -2.1,-2.1c-1.4,-0.3 -2.8,0.6 -3.1,2.1c-0.3,1.4 0.6,2.8 2.1,3.1c1.4,0.3 2.8,-0.6 3.1,-2.1l6.4,0l0,-33.6l16.8,0l0,-14.8c1,-0.2 1.8,-1 2.1,-2.1c0.3,-1.4 -0.6,-2.8 -2.1,-3.1c-1.4,-0.3 -2.8,0.6 -3.1,2.1s0.6,2.8 2,3.1zm-24.7,49.5c-0.9,0 -1.6,-0.7 -1.6,-1.6s0.7,-1.6 1.6,-1.6s1.6,0.7 1.6,1.6s-0.7,1.6 -1.6,1.6zm25.2,-53.6c0.9,0 1.6,0.7 1.6,1.6s-0.7,1.6 -1.6,1.6s-1.6,-0.7 -1.6,-1.6c0.1,-0.9 0.8,-1.6 1.6,-1.6zm207.9,119.9c0.2,1 1,1.8 2.1,2.1c1.4,0.3 2.8,-0.6 3.1,-2.1c0.3,-1.4 -0.6,-2.8 -2.1,-3.1c-1.4,-0.3 -2.8,0.6 -3.1,2.1l-55.8,0l0,-29.1l-21.4,-21.4l-10.3,0c-0.2,-1 -1,-1.8 -2.1,-2.1c-1.4,-0.3 -2.8,0.6 -3.1,2.1c-0.3,1.4 0.6,2.8 2.1,3.1c1.4,0.3 2.8,-0.6 3.1,-2.1l9.8,0l20.7,20.7l0,29.8l57,0zm2.5,-2.1c0.9,0 1.6,0.7 1.6,1.6s-0.7,1.6 -1.6,1.6c-0.9,0 -1.6,-0.7 -1.6,-1.6s0.8,-1.6 1.6,-1.6zm-92.5,-47.3c-0.9,0 -1.6,-0.7 -1.6,-1.6s0.7,-1.6 1.6,-1.6s1.6,0.7 1.6,1.6c-0.1,0.9 -0.8,1.6 -1.6,1.6zm-27.9,-27.4l-45.3,0c-0.2,-1 -1,-1.8 -2.1,-2.1c-1.4,-0.3 -2.8,0.6 -3.1,2.1c-0.3,1.4 0.6,2.8 2.1,3.1c1.4,0.3 2.8,-0.6 3.1,-2.1l45.3,0c0.2,1 1,1.8 2.1,2.1c1.4,0.3 2.8,-0.6 3.1,-2.1c0.3,-1.4 -0.6,-2.8 -2.1,-3.1c-1.4,-0.2 -2.8,0.7 -3.1,2.1zm-47.9,2.1c-0.9,0 -1.6,-0.7 -1.6,-1.6s0.7,-1.6 1.6,-1.6s1.6,0.7 1.6,1.6s-0.7,1.6 -1.6,1.6zm52.1,-1.6c0,0.9 -0.7,1.6 -1.6,1.6s-1.6,-0.7 -1.6,-1.6s0.7,-1.6 1.6,-1.6c0.9,0.1 1.6,0.8 1.6,1.6zm31.5,-47.9c1.4,0.3 2.8,-0.6 3.1,-2.1l6.4,0l0,-7.2l-1.1,0l0,6.2l-5.2,0c-0.2,-1 -1,-1.8 -2.1,-2.1c-1.4,-0.3 -2.8,0.6 -3.1,2.1c-0.3,1.4 0.6,2.8 2,3.1zm0.6,-4.1c0.9,0 1.6,0.7 1.6,1.6s-0.7,1.6 -1.6,1.6s-1.6,-0.7 -1.6,-1.6s0.7,-1.6 1.6,-1.6zm-135.2,98.5l0,29.8l56.9,0c0.2,1 1,1.8 2.1,2.1c1.4,0.3 2.8,-0.6 3.1,-2.1c0.3,-1.4 -0.6,-2.8 -2.1,-3.1c-1.4,-0.3 -2.8,0.6 -3.1,2.1l-55.9,0l0,-29.1l-21.3,-21.4l-9.7,0l0,1l9.3,0l20.7,20.7zm59.4,27.7c0.9,0 1.6,0.7 1.6,1.6s-0.7,1.6 -1.6,1.6c-0.9,0 -1.6,-0.7 -1.6,-1.6s0.8,-1.6 1.6,-1.6zm-76.2,-19.2l0,11.8l-5.3,0c-0.2,-1 -1,-1.8 -2.1,-2.1c-1.4,-0.3 -2.8,0.6 -3.1,2.1c-0.3,1.4 0.6,2.8 2.1,3.1c1.4,0.3 2.8,-0.6 3.1,-2.1l6.4,0l0,-13.4l-13,-12.8l-1.3,0l0,1.1l0.8,0l12.4,12.3zm-7.9,13.9c-0.9,0 -1.6,-0.7 -1.6,-1.6s0.7,-1.6 1.6,-1.6s1.6,0.7 1.6,1.6s-0.8,1.6 -1.6,1.6zm143.6,-126.1l-1.1,0l0,6.2l-15.8,0l0,-6.2l-1.1,0l0,7.3l17.9,0l0,-7.3l0.1,0zm-43.2,9.3l0,31.6l40,0c0.2,1 1,1.8 2.1,2.1c1.4,0.3 2.8,-0.6 3.1,-2.1c0.3,-1.4 -0.6,-2.8 -2.1,-3.1c-1.4,-0.3 -2.8,0.6 -3.1,2.1l-39,0l0,-30.6c1,-0.2 1.8,-1 2.1,-2.1c0.3,-1.4 -0.6,-2.8 -2.1,-3.1c-1.4,-0.3 -2.8,0.6 -3.1,2.1c-0.2,1.4 0.7,2.8 2.1,3.1zm42.6,29.5c0.9,0 1.6,0.7 1.6,1.6s-0.7,1.6 -1.6,1.6s-1.6,-0.7 -1.6,-1.6c0.1,-0.9 0.8,-1.6 1.6,-1.6zm-42,-33.6c0.9,0 1.6,0.7 1.6,1.6s-0.7,1.6 -1.6,1.6s-1.6,-0.7 -1.6,-1.6s0.7,-1.6 1.6,-1.6zm-67.9,4.1c1.4,0.3 2.8,-0.6 3.1,-2.1l13.7,0l0,22.1c-1,0.2 -1.8,1 -2.1,2.1c-0.3,1.4 0.6,2.8 2.1,3.1c1.4,0.3 2.8,-0.6 3.1,-2.1c0.3,-1.4 -0.6,-2.8 -2.1,-3.1l0,-23.1l-14.7,0c-0.2,-1 -1,-1.8 -2.1,-2.1c-1.4,-0.3 -2.8,0.6 -3.1,2.1c-0.2,1.4 0.7,2.8 2.1,3.1zm18.9,22.7c0,0.9 -0.7,1.6 -1.6,1.6s-1.6,-0.7 -1.6,-1.6c0,-0.9 0.7,-1.6 1.6,-1.6s1.6,0.7 1.6,1.6zm-18.4,-26.8c0.9,0 1.6,0.7 1.6,1.6s-0.7,1.6 -1.6,1.6s-1.6,-0.7 -1.6,-1.6c0.1,-0.9 0.8,-1.6 1.6,-1.6zm11,61c0.3,-1.4 -0.6,-2.8 -2.1,-3.1c-1.4,-0.3 -2.8,0.6 -3.1,2.1c-0.3,1.4 0.6,2.8 2.1,3.1l0,40l8.4,0l0,5.3c-1,0.2 -1.8,1 -2.1,2.1c-0.3,1.4 0.6,2.8 2.1,3.1c1.4,0.3 2.8,-0.6 3.1,-2.1c0.3,-1.4 -0.6,-2.8 -2.1,-3.1l0,-6.4l-8.4,0l0,-39c1.1,-0.2 1.9,-1 2.1,-2zm7.4,49.9c0,0.9 -0.7,1.6 -1.6,1.6s-1.6,-0.7 -1.6,-1.6c0,-0.9 0.7,-1.6 1.6,-1.6s1.6,0.8 1.6,1.6zm-9.9,-48.9c-0.9,0 -1.6,-0.7 -1.6,-1.6s0.7,-1.6 1.6,-1.6s1.6,0.7 1.6,1.6c-0.1,0.9 -0.8,1.6 -1.6,1.6zm-42.7,-57.9c1.4,0.3 2.8,-0.6 3.1,-2.1l6.4,0l0,-7.2l-1.1,0l0,6.2l-5.2,0c-0.3,-1 -1.1,-1.8 -2.1,-2c-1.4,-0.3 -2.8,0.6 -3.1,2s0.6,2.8 2,3.1zm0.6,-4.1c0.9,0 1.6,0.7 1.6,1.6s-0.7,1.6 -1.6,1.6s-1.6,-0.7 -1.6,-1.6s0.7,-1.6 1.6,-1.6zm0.5,21c1,-0.2 1.8,-1 2.1,-2.1c0.2,-1.4 -0.7,-2.8 -2.1,-3.1s-2.8,0.6 -3.1,2.1c-0.3,1.4 0.6,2.8 2.1,3.1l0,22.5l-4.7,4.7l0,1.5l5.7,-5.9l0,-22.8zm-2.1,-2.6c0,-0.9 0.7,-1.6 1.6,-1.6s1.6,0.7 1.6,1.6s-0.7,1.6 -1.6,1.6s-1.6,-0.8 -1.6,-1.6zm135.7,-22.7c0.3,0.1 0.7,0.1 1,0c0.6,-0.1 1.1,-0.5 1.5,-0.9l-4,0c0.4,0.4 0.9,0.8 1.5,0.9zm25.2,117.8c1.4,0.3 2.8,-0.6 3.1,-2.1c0.3,-1.4 -0.6,-2.8 -2.1,-3.1c-1.4,-0.3 -2.8,0.6 -3.1,2.1l-45.3,0c-0.2,-1 -1,-1.8 -2.1,-2.1c-1.4,-0.3 -2.8,0.6 -3.1,2.1c-0.3,1.4 0.6,2.8 2.1,3.1c1.4,0.3 2.8,-0.6 3.1,-2.1l45.3,0c0.3,1.1 1.1,1.9 2.1,2.1zm0.6,-4.1c0.9,0 1.6,0.7 1.6,1.6s-0.7,1.6 -1.6,1.6s-1.6,-0.7 -1.6,-1.6s0.7,-1.6 1.6,-1.6zm-50.5,3.1c-0.9,0 -1.6,-0.7 -1.6,-1.6s0.7,-1.6 1.6,-1.6s1.6,0.7 1.6,1.6s-0.7,1.6 -1.6,1.6zm16.3,-100c1.4,0.3 2.8,-0.6 3.1,-2.1c0.3,-1.4 -0.6,-2.8 -2.1,-3.1c-1.4,-0.3 -2.8,0.6 -3.1,2.1l-5.3,0l0,-14.6l-1.1,0l0,15.7l6.4,0c0.2,1 1.1,1.8 2.1,2zm0.5,-4.1c0.9,0 1.6,0.7 1.6,1.6s-0.7,1.6 -1.6,1.6s-1.6,-0.7 -1.6,-1.6s0.7,-1.6 1.6,-1.6zm105,34.7l-12.9,12.9l0,52.3c-1,0.2 -1.8,1 -2.1,2.1c-0.3,1.4 0.6,2.8 2.1,3.1c1.4,0.3 2.8,-0.6 3.1,-2.1c0.3,-1.4 -0.6,-2.8 -2.1,-3.1l0,-51.8l12.3,-12.3l26.6,0l0,-1.1l-27,0zm-10.8,67.8c0,0.9 -0.7,1.6 -1.6,1.6s-1.6,-0.7 -1.6,-1.6s0.7,-1.6 1.6,-1.6c0.9,0.1 1.6,0.8 1.6,1.6zm-111.5,-106.8c1.4,0.3 2.8,-0.6 3.1,-2.1c0.3,-1.4 -0.6,-2.8 -2.1,-3.1l0,-4.1l-1.1,0l0,4.2c-1,0.2 -1.8,1 -2.1,2.1c-0.2,1.3 0.7,2.7 2.2,3zm0.5,-4.1c0.9,0 1.6,0.7 1.6,1.6s-0.7,1.6 -1.6,1.6s-1.6,-0.7 -1.6,-1.6s0.7,-1.6 1.6,-1.6zm-50,15.8c-1.4,-0.3 -2.8,0.6 -3.1,2.1c-0.3,1.4 0.6,2.8 2.1,3.1c1.4,0.3 2.8,-0.6 3.1,-2.1l14.8,0l0,-24.1l-1.1,0l0,23l-13.7,0c-0.2,-1 -1.1,-1.8 -2.1,-2zm-0.5,4.2c-0.9,0 -1.6,-0.7 -1.6,-1.6s0.7,-1.6 1.6,-1.6s1.6,0.7 1.6,1.6c0,0.8 -0.7,1.6 -1.6,1.6zm50,-7.5l0,14.8l30.2,0l12.9,-12.9l0,-19.6l-1.1,0l0,19.1l-12.3,12.3l-28.7,0l0,-13.7c1,-0.2 1.8,-1 2.1,-2.1c0.3,-1.4 -0.6,-2.8 -2.1,-3.1c-1.4,-0.3 -2.8,0.6 -3.1,2.1s0.6,2.8 2.1,3.1zm0.5,-4.1c0.9,0 1.6,0.7 1.6,1.6s-0.7,1.6 -1.6,1.6s-1.6,-0.7 -1.6,-1.6s0.7,-1.6 1.6,-1.6zm-51,-4.3l0,6.4l9.5,0l0,-15.7l-1.1,0l0,14.6l-7.4,0l0,-5.3c1,-0.2 1.8,-1 2.1,-2.1c0.3,-1.4 -0.6,-2.8 -2.1,-3.1c-1.4,-0.3 -2.8,0.6 -3.1,2.1c-0.3,1.4 0.6,2.8 2.1,3.1zm0.5,-4.1c0.9,0 1.6,0.7 1.6,1.6s-0.7,1.6 -1.6,1.6s-1.6,-0.7 -1.6,-1.6s0.7,-1.6 1.6,-1.6zm160.4,15.8c-1.4,-0.3 -2.8,0.6 -3.1,2.1c-0.3,1.4 0.6,2.8 2.1,3.1c1.4,0.3 2.8,-0.6 3.1,-2.1l14.8,0l0,-24.1l-1.1,0l0,23l-13.7,0c-0.2,-1 -1.1,-1.8 -2.1,-2zm-0.5,4.2c-0.9,0 -1.6,-0.7 -1.6,-1.6s0.7,-1.6 1.6,-1.6s1.6,0.7 1.6,1.6c0,0.8 -0.7,1.6 -1.6,1.6zm-0.5,-15.9l0,6.4l9.5,0l0,-15.7l-1.1,0l0,14.6l-7.4,0l0,-5.3c1,-0.2 1.8,-1 2.1,-2.1c0.3,-1.4 -0.6,-2.8 -2.1,-3.1c-1.4,-0.3 -2.8,0.6 -3.1,2.1c-0.3,1.4 0.6,2.8 2.1,3.1zm0.5,-4.1c0.9,0 1.6,0.7 1.6,1.6s-0.7,1.6 -1.6,1.6s-1.6,-0.7 -1.6,-1.6s0.7,-1.6 1.6,-1.6zm-185.7,-4.3c1,0.2 1.9,-0.2 2.5,-0.9l-4,0c0.4,0.4 0.9,0.8 1.5,0.9zm126.2,16.8c1.4,0.3 2.8,-0.6 3.1,-2.1l14.8,0l0,-15.6l-1.1,0l0,14.6l-13.6,0c-0.2,-1 -1,-1.8 -2.1,-2.1c-1.4,-0.3 -2.8,0.6 -3.1,2.1s0.6,2.8 2,3.1zm0.6,-4.1c0.9,0 1.6,0.7 1.6,1.6s-0.7,1.6 -1.6,1.6s-1.6,-0.7 -1.6,-1.6s0.7,-1.6 1.6,-1.6zm33.1,-12.7c1,0.2 1.9,-0.2 2.5,-0.9l-4,0c0.4,0.4 0.9,0.8 1.5,0.9zm-159.9,126.2c1.4,0.3 2.8,-0.6 3.1,-2.1l31.6,0l0,-40c1,-0.2 1.8,-1 2.1,-2.1c0.3,-1.4 -0.6,-2.8 -2.1,-3.1c-1.4,-0.3 -2.8,0.6 -3.1,2.1c-0.3,1.4 0.6,2.8 2.1,3.1l0,39l-30.6,0c-0.2,-1 -1,-1.8 -2.1,-2.1c-1.4,-0.3 -2.8,0.6 -3.1,2.1c-0.2,1.5 0.7,2.8 2.1,3.1zm32.6,-44.6c0,-0.9 0.7,-1.6 1.6,-1.6s1.6,0.7 1.6,1.6s-0.7,1.6 -1.6,1.6s-1.6,-0.7 -1.6,-1.6zm-32.1,40.5c0.9,0 1.6,0.7 1.6,1.6s-0.7,1.6 -1.6,1.6s-1.6,-0.7 -1.6,-1.6c0.1,-0.9 0.8,-1.6 1.6,-1.6zm83.7,-96.8c1.4,0.3 2.8,-0.6 3.1,-2.1l10.3,0l3.5,-3.5l4.9,-4.9l1.4,0c0.2,1 1,1.8 2.1,2.1c1.4,0.3 2.8,-0.6 3.1,-2.1c0.3,-1.4 -0.6,-2.8 -2.1,-3.1c-1.4,-0.3 -2.8,0.6 -3.1,2.1l-1.8,0l-4.5,4.5l-3.9,3.9l-9.8,0c-0.2,-1 -1,-1.8 -2.1,-2.1c-1.4,-0.3 -2.8,0.6 -3.1,2.1c-0.4,1.4 0.5,2.8 2,3.1zm25.7,-12.6c0.9,0 1.6,0.7 1.6,1.6s-0.7,1.6 -1.6,1.6s-1.6,-0.7 -1.6,-1.6c0.1,-0.9 0.8,-1.6 1.6,-1.6zm-25.2,8.4c0.9,0 1.6,0.7 1.6,1.6s-0.7,1.6 -1.6,1.6s-1.6,-0.7 -1.6,-1.6s0.7,-1.6 1.6,-1.6zm-16.3,77.8l8.4,0l0,-17.8l-8.4,0l0,-5.3c1,-0.2 1.8,-1 2.1,-2.1c0.3,-1.4 -0.6,-2.8 -2.1,-3.1c-1.4,-0.3 -2.8,0.6 -3.1,2.1c-0.3,1.4 0.6,2.8 2.1,3.1l0,6.3l8.4,0l0,15.8l-8.4,0l0,34.7l25.2,0l0,22l1.1,0l0,-23l-25.3,0l0,-32.7zm-2.1,-25.7c0,-0.9 0.7,-1.6 1.6,-1.6s1.6,0.7 1.6,1.6s-0.7,1.6 -1.6,1.6c-0.9,-0.1 -1.6,-0.8 -1.6,-1.6zm-6.3,17.3l5.3,0c0.2,1 1,1.8 2.1,2.1c1.4,0.3 2.8,-0.6 3.1,-2.1c0.3,-1.4 -0.6,-2.8 -2.1,-3.1c-1.4,-0.3 -2.8,0.6 -3.1,2.1l-6.4,0l0,51.5l25.2,0l0,13.6l1.1,0l0,-14.6l-25.2,0l0,-49.5zm7.9,-2.1c0.9,0 1.6,0.7 1.6,1.6s-0.7,1.6 -1.6,1.6c-0.9,0 -1.6,-0.7 -1.6,-1.6s0.7,-1.6 1.6,-1.6zm-92.1,-65.2l16.8,0l0,-24.1l-1.1,0l0,23l-16.7,0l0,29.8l-13.2,13.2l0,1.5l14.2,-14.2l0,-29.2zm101,97.9c-1.4,-0.3 -2.8,0.6 -3.1,2.1c-0.3,1.4 0.6,2.8 2.1,3.1c1.4,0.3 2.8,-0.6 3.1,-2.1l39,0l0,30.4l1.1,0l0,-31.5l-40,0c-0.4,-1 -1.2,-1.8 -2.2,-2zm-0.5,4.1c-0.9,0 -1.6,-0.7 -1.6,-1.6s0.7,-1.6 1.6,-1.6s1.6,0.7 1.6,1.6s-0.7,1.6 -1.6,1.6zm134.1,17.9c1.4,0.3 2.8,-0.6 3.1,-2.1c0.3,-1.4 -0.6,-2.8 -2.1,-3.1c-1.4,-0.3 -2.8,0.6 -3.1,2.1l-65.3,0l0,14.6l1.1,0l0,-13.6l64.3,0c0.2,1.1 1,1.9 2,2.1zm0.5,-4.2c0.9,0 1.6,0.7 1.6,1.6s-0.7,1.6 -1.6,1.6s-1.6,-0.7 -1.6,-1.6c0.1,-0.9 0.8,-1.6 1.6,-1.6zm-75.2,7.4l0,-6.4l-9.5,0l0,14.6l1.1,0l0,-13.6l7.4,0l0,5.3c-1,0.2 -1.8,1 -2.1,2.1c-0.3,1.4 0.6,2.8 2.1,3.1c1.4,0.3 2.8,-0.6 3.1,-2.1c0.3,-1.3 -0.7,-2.7 -2.1,-3zm-0.5,4.2c-0.9,0 -1.6,-0.7 -1.6,-1.6s0.7,-1.6 1.6,-1.6s1.6,0.7 1.6,1.6s-0.7,1.6 -1.6,1.6zm-75.2,-4.2c-1.4,-0.3 -2.8,0.6 -3.1,2.1l-65.3,0l0,6.2l1.1,0l0,-5.2l64.2,0c0.2,1 1,1.8 2.1,2.1c1.4,0.3 2.8,-0.6 3.1,-2.1c0.2,-1.4 -0.7,-2.8 -2.1,-3.1zm-0.6,4.2c-0.9,0 -1.6,-0.7 -1.6,-1.6s0.7,-1.6 1.6,-1.6s1.6,0.7 1.6,1.6s-0.7,1.6 -1.6,1.6zm-93.1,-133.7c1.4,0.3 2.8,-0.6 3.1,-2.1l14.8,0l0,-15.6l-1.1,0l0,14.6l-13.6,0c-0.2,-1 -1,-1.8 -2.1,-2.1c-1.4,-0.3 -2.8,0.6 -3.1,2.1s0.6,2.8 2,3.1zm0.6,-4.1c0.9,0 1.6,0.7 1.6,1.6s-0.7,1.6 -1.6,1.6s-1.6,-0.7 -1.6,-1.6s0.7,-1.6 1.6,-1.6zm83.6,130.4c1.4,0.3 2.8,-0.6 3.1,-2.1c0.3,-1.4 -0.6,-2.8 -2.1,-3.1c-1.4,-0.3 -2.8,0.6 -3.1,2.1l-65.2,0l0,14.6l1.1,0l0,-13.6l64.2,0c0.2,1.1 1,1.9 2,2.1zm0.5,-4.2c0.9,0 1.6,0.7 1.6,1.6s-0.7,1.6 -1.6,1.6s-1.6,-0.7 -1.6,-1.6c0.1,-0.9 0.8,-1.6 1.6,-1.6zm-84.7,-21.1c1.4,0.3 2.8,-0.6 3.1,-2.1c0.3,-1.4 -0.6,-2.8 -2.1,-3.1c-1.4,-0.3 -2.8,0.6 -3.1,2.1l-2.6,0l0,1.1l2.7,0c0.2,1 1,1.8 2,2zm0.6,-4.1c0.9,0 1.6,0.7 1.6,1.6s-0.7,1.6 -1.6,1.6s-1.6,-0.7 -1.6,-1.6s0.7,-1.6 1.6,-1.6zm2.6,18.9l14.8,0l0,-26l-17.2,-17.1l-5.5,0l0,1.1l5,0l16.5,16.5l0,24.5l-13.6,0c-0.2,-1 -1,-1.8 -2.1,-2.1c-1.4,-0.3 -2.8,0.6 -3.1,2.1c-0.3,1.4 0.6,2.8 2.1,3.1c1.4,0.2 2.8,-0.7 3.1,-2.1zm-4.2,-0.5c0,-0.9 0.7,-1.6 1.6,-1.6s1.6,0.7 1.6,1.6s-0.7,1.6 -1.6,1.6c-0.9,0 -1.6,-0.7 -1.6,-1.6zm10.5,14.2l0,-6.4l-9.5,0l0,14.6l1.1,0l0,-13.6l7.4,0l0,5.3c-1,0.2 -1.8,1 -2.1,2.1c-0.3,1.4 0.6,2.8 2.1,3.1c1.4,0.3 2.8,-0.6 3.1,-2.1c0.3,-1.3 -0.7,-2.7 -2.1,-3zm-0.5,4.2c-0.9,0 -1.6,-0.7 -1.6,-1.6s0.7,-1.6 1.6,-1.6s1.6,0.7 1.6,1.6s-0.7,1.6 -1.6,1.6zm159.4,-98.6l-25.3,25.3l0,1.8c-1,0.2 -1.8,1 -2.1,2.1c-0.3,1.4 0.6,2.8 2.1,3.1c1.4,0.3 2.8,-0.6 3.1,-2.1c0.3,-1.4 -0.6,-2.8 -2.1,-3.1l0,-1.4l25.2,-25.2l0,-29.2l16.8,0l0,-24.1l-1.1,0l0,23l-16.8,0l0,29.8l0.2,0zm-23.2,29.7c0,0.9 -0.7,1.6 -1.6,1.6s-1.6,-0.7 -1.6,-1.6s0.7,-1.6 1.6,-1.6s1.6,0.7 1.6,1.6zm14.7,44.6c1.4,0.3 2.8,-0.6 3.1,-2.1l6.4,0l0,-13.4l-12.9,-12.9l-10.3,0c-0.2,-1 -1,-1.8 -2.1,-2.1c-1.4,-0.3 -2.8,0.6 -3.1,2.1c-0.3,1.4 0.6,2.8 2.1,3.1c1.4,0.3 2.8,-0.6 3.1,-2.1l9.8,0l12.3,12.3l0,12l-5.2,0c-0.2,-1 -1,-1.8 -2.1,-2.1c-1.4,-0.3 -2.8,0.6 -3.1,2.1s0.6,2.8 2,3.1zm-16.3,-26.2c-0.9,0 -1.6,-0.7 -1.6,-1.6s0.7,-1.6 1.6,-1.6s1.6,0.7 1.6,1.6s-0.7,1.6 -1.6,1.6zm16.9,22.1c0.9,0 1.6,0.7 1.6,1.6s-0.7,1.6 -1.6,1.6s-1.6,-0.7 -1.6,-1.6s0.7,-1.6 1.6,-1.6zm-0.6,-96.8l0,22.5l-25.2,25.2l0,34.4l14.8,0c0.2,1 1,1.8 2.1,2.1c1.4,0.3 2.8,-0.6 3.1,-2.1c0.3,-1.4 -0.6,-2.8 -2.1,-3.1c-1.4,-0.3 -2.8,0.6 -3.1,2.1l-13.7,0l0,-33l25.2,-25.3l0,-22.8c1,-0.2 1.8,-1 2.1,-2.1c0.3,-1.4 -0.6,-2.8 -2.1,-3.1c-1.4,-0.3 -2.8,0.6 -3.1,2.1c-0.3,1.4 0.6,2.8 2,3.1zm-7.8,80c0.9,0 1.6,0.7 1.6,1.6s-0.7,1.6 -1.6,1.6s-1.6,-0.7 -1.6,-1.6s0.7,-1.6 1.6,-1.6zm8.4,-84.2c0.9,0 1.6,0.7 1.6,1.6s-0.7,1.6 -1.6,1.6s-1.6,-0.7 -1.6,-1.6s0.7,-1.6 1.6,-1.6zm-11,9.5c-0.3,1.4 0.6,2.8 2.1,3.1l0,9.8l-16.8,16.8l-8.4,8.4l0,37.6l-13.7,0c-0.2,-1 -1,-1.8 -2.1,-2.1c-1.4,-0.3 -2.8,0.6 -3.1,2.1c-0.3,1.4 0.6,2.8 2.1,3.1c1.4,0.3 2.8,-0.6 3.1,-2.1l14.8,0l0,-38.1l7.4,-7.4l17.9,-17.9l0,-10.2c1,-0.2 1.8,-1 2.1,-2.1c0.3,-1.4 -0.6,-2.8 -2.1,-3.1c-1.6,-0.3 -3,0.6 -3.3,2.1zm-39.5,77.8c-0.9,0 -1.6,-0.7 -1.6,-1.6s0.7,-1.6 1.6,-1.6c0.9,0 1.6,0.7 1.6,1.6s-0.7,1.6 -1.6,1.6zm43.6,-77.3c0,0.9 -0.7,1.6 -1.6,1.6s-1.6,-0.7 -1.6,-1.6c0,-0.9 0.7,-1.6 1.6,-1.6s1.6,0.7 1.6,1.6zm40,-14.3l0,13.7l-16.8,0l0,33.7l-5.3,0c-0.2,-1 -1,-1.8 -2.1,-2.1c-1.4,-0.3 -2.8,0.6 -3.1,2.1c-0.3,1.4 0.6,2.8 2.1,3.1c1.4,0.3 2.8,-0.6 3.1,-2.1l6.4,0l0,-33.6l16.8,0l0,-14.8c1,-0.2 1.8,-1 2.1,-2.1c0.3,-1.4 -0.6,-2.8 -2.1,-3.1c-1.4,-0.3 -2.8,0.6 -3.1,2.1s0.6,2.8 2,3.1zm-24.7,49.5c-0.9,0 -1.6,-0.7 -1.6,-1.6s0.7,-1.6 1.6,-1.6s1.6,0.7 1.6,1.6s-0.7,1.6 -1.6,1.6zm25.2,-53.6c0.9,0 1.6,0.7 1.6,1.6s-0.7,1.6 -1.6,1.6s-1.6,-0.7 -1.6,-1.6c0.1,-0.9 0.8,-1.6 1.6,-1.6zm-31,119.9l14.8,0l0,-26l-17.1,-17.1l-14.5,0c-0.2,-1 -1,-1.8 -2.1,-2.1c-1.4,-0.3 -2.8,0.6 -3.1,2.1c-0.3,1.4 0.6,2.8 2.1,3.1c1.4,0.3 2.8,-0.6 3.1,-2.1l14,0l16.5,16.5l0,24.5l-13.7,0c-0.2,-1 -1,-1.8 -2.1,-2.1c-1.4,-0.3 -2.8,0.6 -3.1,2.1c-0.3,1.4 0.6,2.8 2.1,3.1c1.4,0.3 2.8,-0.6 3.1,-2zm-19.5,-41c-0.9,0 -1.6,-0.7 -1.6,-1.6s0.7,-1.6 1.6,-1.6c0.9,0 1.6,0.7 1.6,1.6s-0.7,1.6 -1.6,1.6zm15.3,40.5c0,-0.9 0.7,-1.6 1.6,-1.6s1.6,0.7 1.6,1.6s-0.7,1.6 -1.6,1.6c-0.9,0 -1.6,-0.7 -1.6,-1.6zm77.8,-78.3c-1.4,-0.3 -2.8,0.6 -3.1,2.1c-0.3,1.4 0.6,2.8 2.1,3.1c1.4,0.3 2.8,-0.6 3.1,-2.1l20,0l0,-1.1l-20,0c-0.2,-1 -1,-1.8 -2.1,-2zm-0.5,4.1c-0.9,0 -1.6,-0.7 -1.6,-1.6s0.7,-1.6 1.6,-1.6s1.6,0.7 1.6,1.6s-0.7,1.6 -1.6,1.6zm-207.8,-18.9c-0.2,-1 -1,-1.8 -2.1,-2.1c-1.4,-0.3 -2.8,0.6 -3.1,2.1c-0.3,1.4 0.6,2.8 2.1,3.1c1.4,0.3 2.8,-0.6 3.1,-2.1l14.8,0l0,-23.2c1,-0.2 1.8,-1 2.1,-2.1c0.3,-1.4 -0.6,-2.8 -2.1,-3.1c-1.4,-0.3 -2.8,0.6 -3.1,2.1c-0.3,1.4 0.6,2.8 2.1,3.1l0,22.1l-13.8,0l0,0.1zm-2.6,2.1c-0.9,0 -1.6,-0.7 -1.6,-1.6s0.7,-1.6 1.6,-1.6s1.6,0.7 1.6,1.6s-0.7,1.6 -1.6,1.6zm15.3,-26.8c0,-0.9 0.7,-1.6 1.6,-1.6s1.6,0.7 1.6,1.6s-0.7,1.6 -1.6,1.6c-0.9,-0.1 -1.6,-0.8 -1.6,-1.6zm76.8,53c1.4,0.3 2.8,-0.6 3.1,-2.1c0.3,-1.4 -0.6,-2.8 -2.1,-3.1c-1.4,-0.3 -2.8,0.6 -3.1,2.1l-45.3,0c-0.2,-1 -1,-1.8 -2.1,-2.1c-1.4,-0.3 -2.8,0.6 -3.1,2.1c-0.3,1.4 0.6,2.8 2.1,3.1c1.4,0.3 2.8,-0.6 3.1,-2.1l45.3,0c0.2,1.1 1,1.9 2.1,2.1zm0.5,-4.1c0.9,0 1.6,0.7 1.6,1.6s-0.7,1.6 -1.6,1.6s-1.6,-0.7 -1.6,-1.6s0.7,-1.6 1.6,-1.6zm-50.5,3.1c-0.9,0 -1.6,-0.7 -1.6,-1.6s0.7,-1.6 1.6,-1.6s1.6,0.7 1.6,1.6s-0.7,1.6 -1.6,1.6zm-64.7,6.3c-0.2,-1 -1,-1.8 -2.1,-2.1c-1.4,-0.3 -2.8,0.6 -3.1,2.1c-0.3,1.4 0.6,2.8 2.1,3.1c1.4,0.3 2.8,-0.6 3.1,-2.1l23.2,0l0,-23.1c1,-0.2 1.8,-1 2.1,-2.1c0.3,-1.4 -0.6,-2.8 -2.1,-3.1c-1.4,-0.3 -2.8,0.6 -3.1,2.1c-0.3,1.4 0.6,2.8 2.1,3.1l0,22.1l-22.2,0zm-2.6,2.1c-0.9,0 -1.6,-0.7 -1.6,-1.6s0.7,-1.6 1.6,-1.6s1.6,0.7 1.6,1.6s-0.8,1.6 -1.6,1.6zm23.6,-26.8c0,-0.9 0.7,-1.6 1.6,-1.6s1.6,0.7 1.6,1.6s-0.7,1.6 -1.6,1.6s-1.6,-0.7 -1.6,-1.6zm169.4,-39.5c1.4,0.3 2.8,-0.6 3.1,-2.1l13.7,0l0,22.1c-1,0.2 -1.8,1 -2.1,2.1c-0.3,1.4 0.6,2.8 2.1,3.1c1.4,0.3 2.8,-0.6 3.1,-2.1c0.3,-1.4 -0.6,-2.8 -2.1,-3.1l0,-23.1l-14.8,0c-0.2,-1 -1,-1.8 -2.1,-2.1c-1.4,-0.3 -2.8,0.6 -3.1,2.1c-0.1,1.4 0.8,2.8 2.2,3.1zm18.9,22.7c0,0.9 -0.7,1.6 -1.6,1.6s-1.6,-0.7 -1.6,-1.6c0,-0.9 0.7,-1.6 1.6,-1.6s1.6,0.7 1.6,1.6zm-18.4,-26.8c0.9,0 1.6,0.7 1.6,1.6s-0.7,1.6 -1.6,1.6s-1.6,-0.7 -1.6,-1.6c0.1,-0.9 0.8,-1.6 1.6,-1.6zm-118.3,121.9c1.4,0.3 2.8,-0.6 3.1,-2.1l6.4,0l0,-42l8.4,0l0,-9.5l-23.2,0c-0.2,-1 -1,-1.8 -2.1,-2.1c-1.4,-0.3 -2.8,0.6 -3.1,2.1c-0.3,1.4 0.6,2.8 2.1,3.1c1.4,0.3 2.8,-0.6 3.1,-2.1l22.1,0l0,7.5l-8.4,0l0,42l-5.3,0c-0.2,-1 -1,-1.8 -2.1,-2.1c-1.4,-0.3 -2.8,0.6 -3.1,2.1s0.7,2.8 2.1,3.1zm-7.9,-51.5c-0.9,0 -1.6,-0.7 -1.6,-1.6s0.7,-1.6 1.6,-1.6s1.6,0.7 1.6,1.6s-0.7,1.6 -1.6,1.6zm8.4,47.4c0.9,0 1.6,0.7 1.6,1.6s-0.7,1.6 -1.6,1.6s-1.6,-0.7 -1.6,-1.6s0.7,-1.6 1.6,-1.6zm-2.6,-7.4c-0.3,1.4 0.6,2.8 2.1,3.1c1.4,0.3 2.8,-0.6 3.1,-2.1c0.3,-1.4 -0.6,-2.8 -2.1,-3.1l0,-28.4c1,-0.2 1.8,-1 2.1,-2.1c0.3,-1.4 -0.6,-2.8 -2.1,-3.1c-1.4,-0.3 -2.8,0.6 -3.1,2.1c-0.3,1.4 0.6,2.8 2.1,3.1l0,28.5c-1,0.2 -1.9,1 -2.1,2zm1,-33.1c0,-0.9 0.7,-1.6 1.6,-1.6s1.6,0.7 1.6,1.6s-0.7,1.6 -1.6,1.6s-1.6,-0.7 -1.6,-1.6zm1.6,32.1c0.9,0 1.6,0.7 1.6,1.6s-0.7,1.6 -1.6,1.6s-1.6,-0.7 -1.6,-1.6s0.7,-1.6 1.6,-1.6zm33.2,-38c1.4,0.3 2.8,-0.6 3.1,-2.1l5.3,0l0,22.1c-1,0.2 -1.8,1 -2.1,2.1c-0.3,1.4 0.6,2.8 2.1,3.1c1.4,0.3 2.8,-0.6 3.1,-2.1c0.3,-1.4 -0.6,-2.8 -2.1,-3.1l0,-23.1l-6.4,0c-0.2,-1 -1,-1.8 -2.1,-2.1c-1.4,-0.3 -2.8,0.6 -3.1,2.1c-0.2,1.5 0.7,2.9 2.2,3.1zm10.5,22.7c0,0.9 -0.7,1.6 -1.6,1.6s-1.6,-0.7 -1.6,-1.6s0.7,-1.6 1.6,-1.6s1.6,0.7 1.6,1.6zm-10,-26.8c0.9,0 1.6,0.7 1.6,1.6s-0.7,1.6 -1.6,1.6s-1.6,-0.7 -1.6,-1.6s0.7,-1.6 1.6,-1.6zm78.3,-32.6c-0.2,-1 -1,-1.8 -2.1,-2.1c-1.4,-0.3 -2.8,0.6 -3.1,2.1c-0.3,1.4 0.6,2.8 2.1,3.1c1.4,0.3 2.8,-0.6 3.1,-2.1l14.8,0l0,-23.2c1,-0.2 1.8,-1 2.1,-2.1c0.3,-1.4 -0.6,-2.8 -2.1,-3.1c-1.4,-0.3 -2.8,0.6 -3.1,2.1c-0.3,1.4 0.6,2.8 2.1,3.1l0,22.1l-13.8,0l0,0.1zm-2.6,2.1c-0.9,0 -1.6,-0.7 -1.6,-1.6s0.7,-1.6 1.6,-1.6s1.6,0.7 1.6,1.6s-0.7,1.6 -1.6,1.6zm15.3,-26.8c0,-0.9 0.7,-1.6 1.6,-1.6s1.6,0.7 1.6,1.6s-0.7,1.6 -1.6,1.6c-0.9,-0.1 -1.6,-0.8 -1.6,-1.6zm32.6,100.4c-0.3,1.4 0.6,2.8 2.1,3.1c1.4,0.3 2.8,-0.6 3.1,-2.1c0.3,-1.4 -0.6,-2.8 -2.1,-3.1l0,-28.4c1,-0.2 1.8,-1 2.1,-2.1c0.3,-1.4 -0.6,-2.8 -2.1,-3.1c-1.4,-0.3 -2.8,0.6 -3.1,2.1c-0.3,1.4 0.6,2.8 2.1,3.1l0,28.5c-1,0.2 -1.9,1 -2.1,2zm1,-33.1c0,-0.9 0.7,-1.6 1.6,-1.6s1.6,0.7 1.6,1.6s-0.7,1.6 -1.6,1.6s-1.6,-0.7 -1.6,-1.6zm1.6,32.1c0.9,0 1.6,0.7 1.6,1.6s-0.7,1.6 -1.6,1.6s-1.6,-0.7 -1.6,-1.6s0.7,-1.6 1.6,-1.6zm-73.1,-41.1c-0.2,-1 -1,-1.8 -2.1,-2.1c-1.4,-0.3 -2.8,0.6 -3.1,2.1c-0.3,1.4 0.6,2.8 2.1,3.1c1.4,0.3 2.8,-0.6 3.1,-2.1l23.2,0l0,-23.1c1,-0.2 1.8,-1 2.1,-2.1c0.3,-1.4 -0.6,-2.8 -2.1,-3.1c-1.4,-0.3 -2.8,0.6 -3.1,2.1c-0.3,1.4 0.6,2.8 2.1,3.1l0,22.1l-22.2,0zm-2.6,2.1c-0.9,0 -1.6,-0.7 -1.6,-1.6s0.7,-1.6 1.6,-1.6s1.6,0.7 1.6,1.6s-0.8,1.6 -1.6,1.6zm23.6,-26.8c0,-0.9 0.7,-1.6 1.6,-1.6s1.6,0.7 1.6,1.6s-0.7,1.6 -1.6,1.6s-1.6,-0.7 -1.6,-1.6zm60,-39.5l0,22.1l-20.5,0l-16.8,16.8l-10,0c-0.2,-1 -1,-1.8 -2.1,-2.1c-1.4,-0.3 -2.8,0.6 -3.1,2.1c-0.3,1.4 0.6,2.8 2.1,3.1c1.4,0.3 2.8,-0.6 3.1,-2.1l10.5,0l16.8,-16.8l21.1,0l0,-23.1c1,-0.2 1.8,-1 2.1,-2.1c0.3,-1.4 -0.6,-2.8 -2.1,-3.1c-1.4,-0.3 -2.8,0.6 -3.1,2.1c-0.3,1.4 0.6,2.8 2,3.1zm-50,41.1c-0.9,0 -1.6,-0.7 -1.6,-1.6s0.7,-1.6 1.6,-1.6s1.6,0.7 1.6,1.6s-0.7,1.6 -1.6,1.6zm50.5,-45.2c0.9,0 1.6,0.7 1.6,1.6s-0.7,1.6 -1.6,1.6s-1.6,-0.7 -1.6,-1.6c0.1,-0.9 0.8,-1.6 1.6,-1.6zm9,68.3l-23.2,0c-0.2,-1 -1,-1.8 -2.1,-2.1c-1.4,-0.3 -2.8,0.6 -3.1,2.1c-0.3,1.4 0.6,2.8 2.1,3.1c1.4,0.3 2.8,-0.6 3.1,-2.1l22.1,0l0,7.5l-8.4,0l0,42l-5.3,0c-0.2,-1 -1,-1.8 -2.1,-2.1c-1.4,-0.3 -2.8,0.6 -3.1,2.1c-0.3,1.4 0.6,2.8 2.1,3.1c1.4,0.3 2.8,-0.6 3.1,-2.1l6.4,0l0,-42l8.4,0l0,-9.5zm-25.8,2.1c-0.9,0 -1.6,-0.7 -1.6,-1.6s0.7,-1.6 1.6,-1.6s1.6,0.7 1.6,1.6s-0.7,1.6 -1.6,1.6zm8.4,50.5c-0.9,0 -1.6,-0.7 -1.6,-1.6s0.7,-1.6 1.6,-1.6s1.6,0.7 1.6,1.6s-0.7,1.6 -1.6,1.6zm-7.9,-63c-1.4,-0.3 -2.8,0.6 -3.1,2.1c-0.3,1.4 0.6,2.8 2.1,3.1c1.4,0.3 2.8,-0.6 3.1,-2.1l28.5,0l0,-1.1l-28.5,0c-0.2,-1 -1,-1.8 -2.1,-2zm-0.5,4.1c-0.9,0 -1.6,-0.7 -1.6,-1.6s0.7,-1.6 1.6,-1.6s1.6,0.7 1.6,1.6s-0.7,1.6 -1.6,1.6zm-27.8,49.5c0.2,1 1,1.8 2.1,2.1c1.4,0.3 2.8,-0.6 3.1,-2.1c0.3,-1.4 -0.6,-2.8 -2.1,-3.1c-1.4,-0.3 -2.8,0.6 -3.1,2.1l-5.3,0l0,-25.3l-6.4,0c-0.2,-1 -1,-1.8 -2.1,-2.1c-1.4,-0.3 -2.8,0.6 -3.1,2.1c-0.3,1.4 0.6,2.8 2.1,3.1c1.4,0.3 2.8,-0.6 3.1,-2.1l5.3,0l0,25.2l6.4,0l0,0.1zm2.6,-2.1c0.9,0 1.6,0.7 1.6,1.6s-0.7,1.6 -1.6,1.6s-1.6,-0.7 -1.6,-1.6s0.7,-1.6 1.6,-1.6zm-16.9,-22.1c-0.9,0 -1.6,-0.7 -1.6,-1.6s0.7,-1.6 1.6,-1.6c0.9,0 1.6,0.7 1.6,1.6s-0.7,1.6 -1.6,1.6zm66.8,-83.2l0,30.6l-25.4,0l-16.6,16.6l0,40.2c-1,0.2 -1.8,1 -2.1,2.1c-0.3,1.4 0.6,2.8 2.1,3.1s2.8,-0.6 3.1,-2.1c0.3,-1.4 -0.6,-2.8 -2.1,-3.1l0,-39.8l16,-16l26.1,0l0,-31.6c1,-0.2 1.8,-1 2.1,-2.1c0.3,-1.4 -0.6,-2.8 -2.1,-3.1c-1.4,-0.3 -2.8,0.6 -3.1,2.1c-0.3,1.4 0.6,2.8 2,3.1zm-40,90c0,0.9 -0.7,1.6 -1.6,1.6s-1.6,-0.7 -1.6,-1.6c0,-0.9 0.7,-1.6 1.6,-1.6s1.6,0.7 1.6,1.6zm40.5,-94.1c0.9,0 1.6,0.7 1.6,1.6s-0.7,1.6 -1.6,1.6s-1.6,-0.7 -1.6,-1.6c0.1,-0.9 0.8,-1.6 1.6,-1.6zm-56.3,118.8c-0.2,-1 -1,-1.8 -2.1,-2.1c-1.4,-0.3 -2.8,0.6 -3.1,2.1c-0.3,1.4 0.6,2.8 2.1,3.1c1.4,0.3 2.8,-0.6 3.1,-2.1l31.6,0l0,-40c1,-0.2 1.8,-1 2.1,-2.1c0.3,-1.4 -0.6,-2.8 -2.1,-3.1c-1.4,-0.3 -2.8,0.6 -3.1,2.1c-0.3,1.4 0.6,2.8 2.1,3.1l0,39l-30.6,0zm-2.6,2.1c-0.9,0 -1.6,-0.7 -1.6,-1.6s0.7,-1.6 1.6,-1.6s1.6,0.7 1.6,1.6s-0.7,1.6 -1.6,1.6zm32.1,-43.6c0,-0.9 0.7,-1.6 1.6,-1.6s1.6,0.7 1.6,1.6s-0.7,1.6 -1.6,1.6s-1.6,-0.7 -1.6,-1.6zm-21.1,-16.3c0.3,-1.4 -0.6,-2.8 -2.1,-3.1c-1.4,-0.3 -2.8,0.6 -3.1,2.1c-0.3,1.4 0.6,2.8 2.1,3.1l0,40l8.4,0l0,5.3c-1,0.2 -1.8,1 -2.1,2.1c-0.3,1.4 0.6,2.8 2.1,3.1c1.4,0.3 2.8,-0.6 3.1,-2.1c0.3,-1.4 -0.6,-2.8 -2.1,-3.1l0,-6.4l-8.3,0l0,-39c1,-0.2 1.8,-1 2,-2zm7.4,49.9c0,0.9 -0.7,1.6 -1.6,1.6s-1.6,-0.7 -1.6,-1.6c0,-0.9 0.7,-1.6 1.6,-1.6s1.6,0.8 1.6,1.6zm-9.9,-48.9c-0.9,0 -1.6,-0.7 -1.6,-1.6s0.7,-1.6 1.6,-1.6s1.6,0.7 1.6,1.6c-0.1,0.9 -0.8,1.6 -1.6,1.6zm0.5,-12.5c-1.4,-0.3 -2.8,0.6 -3.1,2.1l-6.4,0l0,25.2l-13.7,0c-0.2,-1 -1,-1.8 -2.1,-2.1c-1.4,-0.3 -2.8,0.6 -3.1,2.1c-0.3,1.4 0.6,2.8 2.1,3.1c1.4,0.3 2.8,-0.6 3.1,-2.1l14.8,0l0,-25.2l5.3,0c0.2,1 1,1.8 2.1,2.1c1.4,0.3 2.8,-0.6 3.1,-2.1c0.2,-1.5 -0.7,-2.8 -2.1,-3.1zm-25.8,29.4c-0.9,0 -1.6,-0.7 -1.6,-1.6s0.7,-1.6 1.6,-1.6s1.6,0.7 1.6,1.6s-0.7,1.6 -1.6,1.6zm25.3,-25.3c-0.9,0 -1.6,-0.7 -1.6,-1.6s0.7,-1.6 1.6,-1.6s1.6,0.7 1.6,1.6c-0.1,0.9 -0.8,1.6 -1.6,1.6z" />
    <g
       id="logo-group">
      <g
         id="title">
        <path
           id="path161"
           d="m87.2673536,78.3405145c0.408329135,-0.0928020761 0.798097855,-0.278406228 1.13218533,-0.538252042c0.334087474,-0.241285398 0.631054118,-0.538252042 0.872339516,-0.890899931c0.241285398,-0.334087474 0.42688955,-0.723856194 0.556812457,-1.15074574c0.129922907,-0.42688955 0.204164568,-0.872339516 0.204164568,-1.3363499c0,-0.519691626 -0.111362491,-1.02082284 -0.296966644,-1.52195405c-0.204164568,-0.501131211 -0.482570796,-0.946581177 -0.835218685,-1.35491031c-0.352647889,-0.408329135 -0.77953744,-0.723856194 -1.26210824,-0.965141592c-0.482570796,-0.241285398 -1.02082284,-0.371208305 -1.59619571,-0.371208305l-5.64236623,0l0,13.1778948l1.67043737,0l0,-4.73290588l1.67043737,0l-0.928020762,-1.48483322l-0.742416609,0l0,-5.4753225l3.87912678,0c0.315527059,0 0.612493703,0.0742416609 0.909460346,0.222724983c0.296966644,0.148483322 0.538252042,0.334087474 0.760977024,0.593933287c0.222724983,0.259845813 0.38976872,0.538252042 0.519691626,0.872339516c0.129922907,0.334087474 0.204164568,0.686735364 0.204164568,1.03938325c0,0.371208305 -0.0556812457,0.705295779 -0.167043737,1.03938325c-0.129922907,0.352647889 -0.278406228,0.631054118 -0.464010381,0.890899931c-0.204164568,0.259845813 -0.445449966,0.464010381 -0.723856194,0.593933287c-0.278406228,0.148483322 -0.593933287,0.222724983 -0.928020762,0.222724983l-1.4662728,0l0.965141592,1.48483322l3.00678727,4.73290588l1.89316235,0l-3.192391413,-5.048432917z" />
        <path
           id="path163"
           d="m99.4971206,72.0114129l-0.723856194,1.96740401l1.67043737,4.25033509l-3.30375391,0l-0.501131211,1.29922907l4.17609343,0l1.55907488,3.86056637l1.78179986,0l-4.658664225,-11.37753454zm-0.723856194,-1.80036028l-1.41059156,0l-5.40108083,13.1778948l1.7075582,0l4.39881841,-11.2476116l0.70529578,-1.9302832z" />
        <path
           id="path165"
           fill="#211716"
           d="m106.706004,83.3889474l1.67043737,0l0,-7.4056057l-1.67043737,-2.17156858l0,9.57717428zm9.46581177,-13.1593344l0,10.2453492l-8.1665827,-10.2639096l-1.29922907,0l0,1.00226242l1.67043737,2.11588734l8.05522021,10.0597451l1.41059156,0l0,-13.1593344l-1.67043737,-6e-8z" />
        <path
           id="path167"
           fill="#211716"
           d="m132.285929,74.2386627c-0.259845813,-0.798097855 -0.668174948,-1.50339363 -1.18786657,-2.09732692c-0.538252042,-0.575372872 -1.20642699,-1.05794367 -2.00452484,-1.41059156c-0.798097855,-0.334087474 -1.72611862,-0.519691626 -2.76550187,-0.519691626l-4.56586215,0l0,1.48483322l4.56586215,0c0.742416609,0 1.39203114,0.129922907 1.98596443,0.38976872c0.575372872,0.259845813 1.05794367,0.612493703 1.4662728,1.03938325c0.408329135,0.445449966 0.705295779,0.983702007 0.909460346,1.61475612c0.204164568,0.631054118 0.315527059,1.31778948 0.315527059,2.04164568c0,0.742416609 -0.111362491,1.41059156 -0.315527059,2.04164568c-0.204164568,0.631054118 -0.501131211,1.16930616 -0.890899931,1.61475612c-0.38976872,0.464010381 -0.872339516,0.835218685 -1.4662728,1.07650408c-0.593933287,0.259845813 -1.26210824,0.38976872 -2.00452484,0.38976872l-2.89542478,0l0,-8.4449889l-1.67043737,0l0,9.9298221l4.56586215,0c0.965141592,0 1.83748111,-0.148483322 2.61701855,-0.464010381s1.4662728,-0.760977024 2.02308526,-1.3363499c0.556812457,-0.575372872 0.983702007,-1.26210824 1.28066865,-2.07876651c0.296966644,-0.81665827 0.445449966,-1.72611862 0.445449966,-2.72838104c0,-0.890899931 -0.148483322,-1.74467903 -0.408329135,-2.54277689l-1.6e-8,3.7e-8z" />
        <path
           id="path169"
           fill="#3e2b28"
           d="m135.839574,70.2110526l0,13.1778948l1.67043737,0l0,-10.189668l2.95110602,5.27115793l0.890899931,-1.52195405l-3.74920388,-6.73743073l-1.763239441,5e-8zm11.3218533,0l-4.78858713,8.55635142l-0.872339516,1.52195405l0.408329135,0.723856194l0.946581177,0l4.38025799,-7.81393481l0,10.1896679l1.67043737,0l0,-13.1778948l-1.744679026,4.6e-8z" />
        <path
           id="path171"
           fill="#3e2b28"
           d="m152.817035,83.3889474l1.67043737,0l0,-13.1778948l-1.67043737,0l0,13.1778948z" />
        <path
           id="path173"
           fill="#5f423e"
           d="m158.411745,83.3889474l1.67043737,0l0,-7.4056057l-1.67043737,-2.17156858l0,9.57717428zm9.46581177,-13.1593344l0,10.2453492l-8.1665827,-10.2639096l-1.29922907,0l0,1.00226242l1.67043737,2.11588734l8.05522021,10.0597451l1.41059156,0l0,-13.1593344l-1.67043737,-6e-8z" />
        <path
           id="path175"
           fill="#5f423e"
           d="m183.991671,74.2386627c-0.259845813,-0.798097855 -0.668174948,-1.50339363 -1.18786657,-2.09732692c-0.538252042,-0.575372872 -1.20642699,-1.05794367 -2.00452484,-1.41059156c-0.798097855,-0.334087474 -1.72611862,-0.519691626 -2.76550187,-0.519691626l-4.56586215,0l0,1.48483322l4.56586215,0c0.742416609,0 1.39203114,0.129922907 1.98596443,0.38976872c0.575372872,0.259845813 1.05794367,0.612493703 1.4662728,1.03938325c0.408329135,0.445449966 0.705295779,0.983702007 0.909460346,1.61475612c0.204164568,0.631054118 0.315527059,1.31778948 0.315527059,2.04164568c0,0.742416609 -0.111362491,1.41059156 -0.315527059,2.04164568c-0.204164568,0.631054118 -0.501131211,1.16930616 -0.890899931,1.61475612c-0.38976872,0.464010381 -0.872339516,0.835218685 -1.4662728,1.07650408c-0.593933287,0.259845813 -1.26210824,0.38976872 -2.00452484,0.38976872l-2.89542478,0l0,-8.4449889l-1.67043737,0l0,9.9298221l4.56586215,0c0.965141592,0 1.83748111,-0.148483322 2.61701855,-0.464010381s1.4662728,-0.760977024 2.02308526,-1.3363499c0.556812457,-0.575372872 0.983702007,-1.26210824 1.28066865,-2.07876651c0.296966644,-0.81665827 0.445449966,-1.72611862 0.445449966,-2.72838104c0,-0.890899931 -0.148483322,-1.74467903 -0.408329135,-2.54277689l-1.6e-8,3.7e-8z" />
      </g>
    </g>
  </g>
</svg>
